:SAMPLES-PER-SECOND 30
:FULLY-SPECIFIED
:DEGREES
222
root  64.5023 39.5345 3.42215 -47.586 -86.4898 46.7149
RightUpLeg  -5.32659 -3.59835 -4.33063
RightLeg  16.6018 -1.02326 -0.70589
RightFoot  -5.17962 -0.127726 1.68442
RightToes  3.49245e-010 0 -3.6325e-017
Spine  6.98302 0.490694 0.0469137
Spine1  3.01753 1.43349 -4.3174
HEad  -21.3621 8.71967 -5.22188
LeftShoulder1  -0.33001 4.3727 -31.8458
LeftArm  -1.08339 1.43068 -37.9682
LeftForeArm  25.9415 -47.4678 -10.3207
LeftHand  -0.0732513 4.10692 5.21536
RightShoulder  -0.63826 -5.34068 28.0321
RightArm  19.3094 -6.30732 47.1626
RightForeArm  15.3884 13.3886 6.72696
RightHand  -0.210757 5.25487 -2.60935
LeftUpLeg  -7.72745 9.17785 -3.08759
LeftLeg  16.4847 -1.23993 -0.378539
LeftFoot  0.352378 -0.506211 4.91896
LeftToes  -5.6298e-010 8.41567e-011 -1.83319e-011
223
root  64.2312 39.5975 3.36891 -58.2072 -86.7099 57.2448
RightUpLeg  -5.01412 -2.96493 -4.51398
RightLeg  16.8664 -0.743792 -0.630946
RightFoot  -4.78359 -0.1404 1.87703
RightToes  3.49245e-010 0 -3.6325e-017
Spine  7.33456 0.452069 1.17012
Spine1  3.06329 1.70352 -5.49348
HEad  -21.4411 9.0965 -5.35194
LeftShoulder1  -0.371687 4.47259 -32.2362
LeftArm  0.501139 2.15146 -37.4834
LeftForeArm  24.6297 -42.9076 -8.7558
LeftHand  -0.0393176 5.00753 5.73194
RightShoulder  -0.65125 -5.37985 28.0115
RightArm  20.9672 -5.09421 47.0839
RightForeArm  14.7404 14.0064 6.77129
RightHand  -0.247555 5.90191 -2.86759
LeftUpLeg  -7.39283 9.44329 -3.15071
LeftLeg  16.8512 -0.965591 -0.204649
LeftFoot  0.67783 -0.467312 4.39764
LeftToes  -5.6298e-010 8.41567e-011 -1.83319e-011
224
root  63.9837 39.6609 3.33146 -65.4141 -87.0202 64.3316
RightUpLeg  -4.59139 -2.6008 -4.54989
RightLeg  16.9424 0.301225 -0.316252
RightFoot  -4.40388 -0.213526 3.02728
RightToes  3.49245e-010 0 -3.6325e-017
Spine  6.96295 0.431636 2.22366
Spine1  4.32907 1.84861 -5.74444
HEad  -21.9575 9.67515 -5.9659
LeftShoulder1  -0.388145 4.49786 -32.9012
LeftArm  2.839 3.21087 -37.433
LeftForeArm  22.8048 -37.3393 -7.15088
LeftHand  -0.0559171 4.45665 4.60103
RightShoulder  -0.631672 -5.35733 27.3689
RightArm  22.3571 -3.63856 47.4002
RightForeArm  12.526 14.8711 6.6514
RightHand  -0.357012 6.1882 -3.90438
LeftUpLeg  -7.36791 8.7842 -2.99405
LeftLeg  17.7291 0.114114 0.320283
LeftFoot  0.915186 -0.376264 3.45113
LeftToes  -5.6298e-010 8.41567e-011 -1.83319e-011
225
root  63.7271 39.7552 3.25667 -81.3544 -87.6019 80.4771
RightUpLeg  -4.48145 -3.13578 -4.23301
RightLeg  16.6882 1.87996 0.121772
RightFoot  -3.59804 -0.244945 3.25799
RightToes  3.49245e-010 0 -3.6325e-017
Spine  6.48667 0.54418 3.08109
Spine1  4.9485 2.0263 -5.6799
HEad  -20.8126 9.99761 -6.16313
LeftShoulder1  -0.422331 4.57645 -33.2337
LeftArm  6.74445 5.53725 -37.682
LeftForeArm  21.1698 -31.6969 -5.73379
LeftHand  -0.00359659 5.95278 4.92379
RightShoulder  -0.626481 -5.33621 27.4745
RightArm  24.0915 -2.25675 46.988
RightForeArm  9.93882 16.1105 6.34837
RightHand  -0.437867 6.42257 -4.64261
LeftUpLeg  -7.75142 9.06478 -2.45385
LeftLeg  18.8156 0.431247 0.498825
LeftFoot  1.32345 -0.248219 2.16623
LeftToes  -5.6298e-010 8.41567e-011 -1.83319e-011
226
root  63.5498 39.8255 3.15504 -92.1942 -87.7664 92.0908
RightUpLeg  -5.19624 -3.63546 -3.91207
RightLeg  16.7304 2.60556 0.320594
RightFoot  -2.98999 -0.25983 3.27843
RightToes  3.49245e-010 0 -3.6325e-017
Spine  6.88385 0.624827 3.84463
Spine1  3.72459 2.1712 -6.02299
HEad  -20.2618 10.2962 -5.94635
LeftShoulder1  -0.383133 4.47997 -33.095
LeftArm  12.5476 8.16582 -38.1485
LeftForeArm  18.4305 -25.6479 -4.6519
LeftHand  0.00619218 6.63673 3.54011
RightShoulder  -0.804125 -5.80013 28.3397
RightArm  26.0737 -1.5142 45.8982
RightForeArm  7.70961 17.9501 5.72792
RightHand  -0.291744 5.5297 -3.38252
LeftUpLeg  -9.52842 8.92566 -2.1439
LeftLeg  20.9616 0.753355 0.646289
LeftFoot  2.16233 -0.0736293 0.514322
LeftToes  -5.6298e-010 8.41567e-011 -1.83319e-011
227
root  63.3921 39.8267 3.04415 -97.5114 -87.5305 97.8208
RightUpLeg  -5.67678 -4.22981 -4.06096
RightLeg  17.2107 3.32973 0.605093
RightFoot  -3.06971 -0.258444 3.28304
RightToes  3.49245e-010 0 -3.6325e-017
Spine  7.41773 0.632794 4.05934
Spine1  2.89826 2.21062 -6.18319
HEad  -19.6569 10.91 -5.47963
LeftShoulder1  -0.331407 4.35158 -32.9434
LeftArm  14.962 10.4899 -38.6328
LeftForeArm  19.3439 -19.0705 -5.64073
LeftHand  -0.0321076 6.51579 0.400812
RightShoulder  -1.01824 -6.34771 29.2716
RightArm  26.4538 -0.891761 45.3248
RightForeArm  7.52241 19.046 5.28978
RightHand  -0.182114 3.37213 -2.64025
LeftUpLeg  -11.8575 8.75373 -2.10561
LeftLeg  24.593 0.830202 0.755989
LeftFoot  3.45261 0.20945 -1.7401
LeftToes  -5.6298e-010 8.41567e-011 -1.83319e-011
228
root  63.356 39.7224 2.97879 -89.1799 -87.5771 89.6487
RightUpLeg  -6.28817 -5.05549 -4.09934
RightLeg  18.3912 3.99002 0.940836
RightFoot  -3.7428 -0.244236 3.29558
RightToes  3.49245e-010 0 -3.6325e-017
Spine  8.18172 0.342311 4.11553
Spine1  2.87319 1.74595 -5.07355
HEad  -20.0361 11.6028 -5.92848
LeftShoulder1  -0.353482 4.38734 -33.8765
LeftArm  6.71071 11.7904 -38.2815
LeftForeArm  30.949 -12.0022 -9.41173
LeftHand  -0.0609832 7.54284 -1.41669
RightShoulder  -0.913979 -6.12104 28.3513
RightArm  24.9293 -0.602101 46.426
RightForeArm  6.47442 19.7657 5.03062
RightHand  -0.291651 4.18854 -3.81187
LeftUpLeg  -15.2014 7.29825 -1.96291
LeftLeg  29.9724 1.66714 1.40351
LeftFoot  5.36161 0.408212 -3.07752
LeftToes  -5.6298e-010 8.41567e-011 -1.83319e-011
229
root  63.291 39.5676 2.97343 -88.4886 -87.8667 88.7482
RightUpLeg  -6.53374 -5.49669 -3.8597
RightLeg  19.6827 4.33201 1.20277
RightFoot  -4.82327 -0.21316 3.15884
RightToes  3.49245e-010 0 -3.6325e-017
Spine  9.2099 0.114124 5.78092
Spine1  2.7967 1.81046 -5.78908
HEad  -19.6099 10.5417 -5.43873
LeftShoulder1  -0.308097 4.26425 -34.3593
LeftArm  0.133916 13.4307 -38.3353
LeftForeArm  41.7071 -6.32764 -10.4769
LeftHand  -0.133388 10.5384 -1.52081
RightShoulder  -0.88883 -6.06408 28.1366
RightArm  24.2857 -0.564089 46.9694
RightForeArm  6.26011 20.6478 4.78899
RightHand  -0.223015 3.27308 -3.23099
LeftUpLeg  -17.7118 6.05951 -1.84131
LeftLeg  34.0147 1.49182 1.42812
LeftFoot  6.0014 0.0667387 -0.627349
LeftToes  -5.6298e-010 8.41567e-011 -1.83319e-011
230
root  63.1518 39.5282 2.98211 -109.082 -87.3437 109.366
RightUpLeg  -6.67281 -4.87423 -4.17218
RightLeg  20.1591 4.41013 1.31832
RightFoot  -5.33138 -0.173227 2.6148
RightToes  3.49245e-010 0 -3.6325e-017
Spine  8.80261 0.527563 6.48644
Spine1  4.0491 2.52646 -6.77388
HEad  -19.8572 10.5706 -5.40188
LeftShoulder1  -0.326749 4.3048 -34.6246
LeftArm  -3.10812 15.1339 -38.9165
LeftForeArm  48.7709 -3.18541 -9.63337
LeftHand  -0.281536 11.1214 -4.30192
RightShoulder  -0.907173 -6.0916 28.4758
RightArm  25.0735 0.00339338 46.8315
RightForeArm  5.52661 20.6145 4.86366
RightHand  -0.214558 4.06892 -2.91357
LeftUpLeg  -17.6522 4.57736 -2.39808
LeftLeg  31.4409 -3.08982 -1.65297
LeftFoot  1.68268 0.138567 -1.44053
LeftToes  -5.6298e-010 8.41567e-011 -1.83319e-011
231
root  62.9803 39.4538 3.02947 -134.968 -86.596 135.727
RightUpLeg  -7.47637 -3.13444 -4.07938
RightLeg  20.9236 4.2129 1.42481
RightFoot  -5.93805 -0.170646 2.75898
RightToes  3.49245e-010 0 -3.6325e-017
Spine  8.47751 1.07626 7.60693
Spine1  4.12184 3.33417 -7.91664
HEad  -20.1771 9.6783 -5.74639
LeftShoulder1  -0.368226 4.40521 -34.6221
LeftArm  -4.05528 18.1393 -39.3517
LeftForeArm  50.0085 -2.64117 -8.94183
LeftHand  -0.360306 12.0856 -4.89622
RightShoulder  -1.02461 -6.38389 29.0259
RightArm  26.4376 0.318648 46.5165
RightForeArm  6.10597 20.2587 4.97297
RightHand  -0.21573 5.04304 -2.70292
LeftUpLeg  -16.5214 1.40733 -2.51357
LeftLeg  24.5798 -6.32116 -2.82523
LeftFoot  -1.3777 0.506986 -5.53103
LeftToes  -5.6298e-010 8.41567e-011 -1.83319e-011
232
root  62.8129 39.3676 3.09503 -150.639 -85.9866 151.601
RightUpLeg  -7.7136 -1.93081 -3.66709
RightLeg  21.2641 4.08772 1.49338
RightFoot  -6.48697 -0.159172 2.7116
RightToes  3.49245e-010 0 -3.6325e-017
Spine  8.07085 1.35346 8.2605
Spine1  4.47223 3.70296 -8.32518
HEad  -20.2533 10.3385 -6.15454
LeftShoulder1  -0.25364 4.1453 -33.4542
LeftArm  -5.26694 21.7498 -40.7406
LeftForeArm  48.6104 -3.5702 -8.30043
LeftHand  -0.3796 12.3316 -5.06144
RightShoulder  -1.09786 -6.53641 29.6777
RightArm  27.669 0.689652 46.1405
RightForeArm  7.36581 19.7369 5.12093
RightHand  -0.156762 4.14327 -2.16916
LeftUpLeg  -15.1955 -2.19053 -2.44569
LeftLeg  18.3323 -7.95427 -2.63451
LeftFoot  -0.266268 0.56064 -6.25687
LeftToes  -5.6298e-010 8.41567e-011 -1.83319e-011
233
root  62.6998 39.3005 3.15234 -164.511 -85.393 165.455
RightUpLeg  -7.52473 -0.642023 -2.85095
RightLeg  21.0919 3.69653 1.35916
RightFoot  -6.75876 -0.146453 2.52783
RightToes  3.49245e-010 0 -3.6325e-017
Spine  8.07567 1.57824 7.63453
Spine1  4.68675 3.59392 -6.92813
HEad  -19.9574 11.5508 -6.68368
LeftShoulder1  -0.276923 4.19743 -33.759
LeftArm  -5.48905 24.0137 -40.8982
LeftForeArm  46.0362 -4.9419 -8.14298
LeftHand  -0.382381 11.0837 -6.25904
RightShoulder  -1.04338 -6.39642 29.531
RightArm  27.873 0.734498 45.9235
RightForeArm  7.7814 19.3692 5.24909
RightHand  -0.0654745 4.17928 -1.04875
LeftUpLeg  -14.805 -0.953256 -2.7808
LeftLeg  16.9582 -7.75478 -2.32631
LeftFoot  2.50916 -0.389053 3.30853
LeftToes  -5.6298e-010 8.41567e-011 -1.83319e-011
234
root  62.5944 39.2248 3.18509 178.255 -84.73 -177.496
RightUpLeg  -7.02882 0.885677 -1.29187
RightLeg  20.7931 2.99129 1.04161
RightFoot  -6.91704 -0.135968 2.38011
RightToes  3.49245e-010 0 -3.6325e-017
Spine  8.46485 1.72339 6.94567
Spine1  4.43625 3.2373 -4.80201
HEad  -18.649 12.763 -6.64212
LeftShoulder1  -0.38513 4.45092 -34.5055
LeftArm  -4.71386 24.6959 -40.3193
LeftForeArm  43.2546 -5.97988 -8.51488
LeftHand  -0.396705 11.7764 -5.77975
RightShoulder  -1.01777 -6.32813 29.4845
RightArm  26.8605 0.440826 45.667
RightForeArm  8.01367 18.6187 5.48242
RightHand  -0.196252 4.66515 -2.56933
LeftUpLeg  -14.2772 1.97851 -1.9636
LeftLeg  17.2428 -7.582 -2.30981
LeftFoot  1.25055 -0.775746 6.92998
LeftToes  -5.6298e-010 8.41567e-011 -1.83319e-011
